# boss_laser_torus: generated torus mesh for boss laser beam/explosion visuals
mtllib boss_laser_torus.mtl
o boss_laser_torus
v 0.615000 0.000000 0.000000
v 0.587175 0.000000 0.067175
v 0.520000 0.000000 0.095000
v 0.452825 0.000000 0.067175
v 0.425000 0.000000 0.000000
v 0.452825 0.000000 -0.067175
v 0.520000 0.000000 -0.095000
v 0.587175 0.000000 -0.067175
v 0.594044 0.159174 0.000000
v 0.567168 0.151972 0.067175
v 0.502281 0.134586 0.095000
v 0.437395 0.117200 0.067175
v 0.410518 0.109998 0.000000
v 0.437395 0.117200 -0.067175
v 0.502281 0.134586 -0.095000
v 0.567168 0.151972 -0.067175
v 0.532606 0.307500 0.000000
v 0.508509 0.293588 0.067175
v 0.450333 0.260000 0.095000
v 0.392158 0.226412 0.067175
v 0.368061 0.212500 0.000000
v 0.392158 0.226412 -0.067175
v 0.450333 0.260000 -0.095000
v 0.508509 0.293588 -0.067175
v 0.434871 0.434871 0.000000
v 0.415196 0.415196 0.067175
v 0.367696 0.367696 0.095000
v 0.320196 0.320196 0.067175
v 0.300520 0.300520 0.000000
v 0.320196 0.320196 -0.067175
v 0.367696 0.367696 -0.095000
v 0.415196 0.415196 -0.067175
v 0.307500 0.532606 0.000000
v 0.293588 0.508509 0.067175
v 0.260000 0.450333 0.095000
v 0.226412 0.392158 0.067175
v 0.212500 0.368061 0.000000
v 0.226412 0.392158 -0.067175
v 0.260000 0.450333 -0.095000
v 0.293588 0.508509 -0.067175
v 0.159174 0.594044 0.000000
v 0.151972 0.567168 0.067175
v 0.134586 0.502281 0.095000
v 0.117200 0.437395 0.067175
v 0.109998 0.410518 0.000000
v 0.117200 0.437395 -0.067175
v 0.134586 0.502281 -0.095000
v 0.151972 0.567168 -0.067175
v 0.000000 0.615000 0.000000
v 0.000000 0.587175 0.067175
v 0.000000 0.520000 0.095000
v 0.000000 0.452825 0.067175
v 0.000000 0.425000 0.000000
v 0.000000 0.452825 -0.067175
v 0.000000 0.520000 -0.095000
v 0.000000 0.587175 -0.067175
v -0.159174 0.594044 0.000000
v -0.151972 0.567168 0.067175
v -0.134586 0.502281 0.095000
v -0.117200 0.437395 0.067175
v -0.109998 0.410518 0.000000
v -0.117200 0.437395 -0.067175
v -0.134586 0.502281 -0.095000
v -0.151972 0.567168 -0.067175
v -0.307500 0.532606 0.000000
v -0.293588 0.508509 0.067175
v -0.260000 0.450333 0.095000
v -0.226412 0.392158 0.067175
v -0.212500 0.368061 0.000000
v -0.226412 0.392158 -0.067175
v -0.260000 0.450333 -0.095000
v -0.293588 0.508509 -0.067175
v -0.434871 0.434871 0.000000
v -0.415196 0.415196 0.067175
v -0.367696 0.367696 0.095000
v -0.320196 0.320196 0.067175
v -0.300520 0.300520 0.000000
v -0.320196 0.320196 -0.067175
v -0.367696 0.367696 -0.095000
v -0.415196 0.415196 -0.067175
v -0.532606 0.307500 0.000000
v -0.508509 0.293588 0.067175
v -0.450333 0.260000 0.095000
v -0.392158 0.226412 0.067175
v -0.368061 0.212500 0.000000
v -0.392158 0.226412 -0.067175
v -0.450333 0.260000 -0.095000
v -0.508509 0.293588 -0.067175
v -0.594044 0.159174 0.000000
v -0.567168 0.151972 0.067175
v -0.502281 0.134586 0.095000
v -0.437395 0.117200 0.067175
v -0.410518 0.109998 0.000000
v -0.437395 0.117200 -0.067175
v -0.502281 0.134586 -0.095000
v -0.567168 0.151972 -0.067175
v -0.615000 0.000000 0.000000
v -0.587175 0.000000 0.067175
v -0.520000 0.000000 0.095000
v -0.452825 0.000000 0.067175
v -0.425000 0.000000 0.000000
v -0.452825 0.000000 -0.067175
v -0.520000 0.000000 -0.095000
v -0.587175 0.000000 -0.067175
v -0.594044 -0.159174 0.000000
v -0.567168 -0.151972 0.067175
v -0.502281 -0.134586 0.095000
v -0.437395 -0.117200 0.067175
v -0.410518 -0.109998 0.000000
v -0.437395 -0.117200 -0.067175
v -0.502281 -0.134586 -0.095000
v -0.567168 -0.151972 -0.067175
v -0.532606 -0.307500 0.000000
v -0.508509 -0.293588 0.067175
v -0.450333 -0.260000 0.095000
v -0.392158 -0.226412 0.067175
v -0.368061 -0.212500 0.000000
v -0.392158 -0.226412 -0.067175
v -0.450333 -0.260000 -0.095000
v -0.508509 -0.293588 -0.067175
v -0.434871 -0.434871 0.000000
v -0.415196 -0.415196 0.067175
v -0.367696 -0.367696 0.095000
v -0.320196 -0.320196 0.067175
v -0.300520 -0.300520 0.000000
v -0.320196 -0.320196 -0.067175
v -0.367696 -0.367696 -0.095000
v -0.415196 -0.415196 -0.067175
v -0.307500 -0.532606 0.000000
v -0.293588 -0.508509 0.067175
v -0.260000 -0.450333 0.095000
v -0.226412 -0.392158 0.067175
v -0.212500 -0.368061 0.000000
v -0.226412 -0.392158 -0.067175
v -0.260000 -0.450333 -0.095000
v -0.293588 -0.508509 -0.067175
v -0.159174 -0.594044 0.000000
v -0.151972 -0.567168 0.067175
v -0.134586 -0.502281 0.095000
v -0.117200 -0.437395 0.067175
v -0.109998 -0.410518 0.000000
v -0.117200 -0.437395 -0.067175
v -0.134586 -0.502281 -0.095000
v -0.151972 -0.567168 -0.067175
v -0.000000 -0.615000 0.000000
v -0.000000 -0.587175 0.067175
v -0.000000 -0.520000 0.095000
v -0.000000 -0.452825 0.067175
v -0.000000 -0.425000 0.000000
v -0.000000 -0.452825 -0.067175
v -0.000000 -0.520000 -0.095000
v -0.000000 -0.587175 -0.067175
v 0.159174 -0.594044 0.000000
v 0.151972 -0.567168 0.067175
v 0.134586 -0.502281 0.095000
v 0.117200 -0.437395 0.067175
v 0.109998 -0.410518 0.000000
v 0.117200 -0.437395 -0.067175
v 0.134586 -0.502281 -0.095000
v 0.151972 -0.567168 -0.067175
v 0.307500 -0.532606 0.000000
v 0.293588 -0.508509 0.067175
v 0.260000 -0.450333 0.095000
v 0.226412 -0.392158 0.067175
v 0.212500 -0.368061 0.000000
v 0.226412 -0.392158 -0.067175
v 0.260000 -0.450333 -0.095000
v 0.293588 -0.508509 -0.067175
v 0.434871 -0.434871 0.000000
v 0.415196 -0.415196 0.067175
v 0.367696 -0.367696 0.095000
v 0.320196 -0.320196 0.067175
v 0.300520 -0.300520 0.000000
v 0.320196 -0.320196 -0.067175
v 0.367696 -0.367696 -0.095000
v 0.415196 -0.415196 -0.067175
v 0.532606 -0.307500 0.000000
v 0.508509 -0.293588 0.067175
v 0.450333 -0.260000 0.095000
v 0.392158 -0.226412 0.067175
v 0.368061 -0.212500 0.000000
v 0.392158 -0.226412 -0.067175
v 0.450333 -0.260000 -0.095000
v 0.508509 -0.293588 -0.067175
v 0.594044 -0.159174 0.000000
v 0.567168 -0.151972 0.067175
v 0.502281 -0.134586 0.095000
v 0.437395 -0.117200 0.067175
v 0.410518 -0.109998 0.000000
v 0.437395 -0.117200 -0.067175
v 0.502281 -0.134586 -0.095000
v 0.567168 -0.151972 -0.067175
vt 0.000000 0.000000
vt 0.000000 0.125000
vt 0.000000 0.250000
vt 0.000000 0.375000
vt 0.000000 0.500000
vt 0.000000 0.625000
vt 0.000000 0.750000
vt 0.000000 0.875000
vt 0.041667 0.000000
vt 0.041667 0.125000
vt 0.041667 0.250000
vt 0.041667 0.375000
vt 0.041667 0.500000
vt 0.041667 0.625000
vt 0.041667 0.750000
vt 0.041667 0.875000
vt 0.083333 0.000000
vt 0.083333 0.125000
vt 0.083333 0.250000
vt 0.083333 0.375000
vt 0.083333 0.500000
vt 0.083333 0.625000
vt 0.083333 0.750000
vt 0.083333 0.875000
vt 0.125000 0.000000
vt 0.125000 0.125000
vt 0.125000 0.250000
vt 0.125000 0.375000
vt 0.125000 0.500000
vt 0.125000 0.625000
vt 0.125000 0.750000
vt 0.125000 0.875000
vt 0.166667 0.000000
vt 0.166667 0.125000
vt 0.166667 0.250000
vt 0.166667 0.375000
vt 0.166667 0.500000
vt 0.166667 0.625000
vt 0.166667 0.750000
vt 0.166667 0.875000
vt 0.208333 0.000000
vt 0.208333 0.125000
vt 0.208333 0.250000
vt 0.208333 0.375000
vt 0.208333 0.500000
vt 0.208333 0.625000
vt 0.208333 0.750000
vt 0.208333 0.875000
vt 0.250000 0.000000
vt 0.250000 0.125000
vt 0.250000 0.250000
vt 0.250000 0.375000
vt 0.250000 0.500000
vt 0.250000 0.625000
vt 0.250000 0.750000
vt 0.250000 0.875000
vt 0.291667 0.000000
vt 0.291667 0.125000
vt 0.291667 0.250000
vt 0.291667 0.375000
vt 0.291667 0.500000
vt 0.291667 0.625000
vt 0.291667 0.750000
vt 0.291667 0.875000
vt 0.333333 0.000000
vt 0.333333 0.125000
vt 0.333333 0.250000
vt 0.333333 0.375000
vt 0.333333 0.500000
vt 0.333333 0.625000
vt 0.333333 0.750000
vt 0.333333 0.875000
vt 0.375000 0.000000
vt 0.375000 0.125000
vt 0.375000 0.250000
vt 0.375000 0.375000
vt 0.375000 0.500000
vt 0.375000 0.625000
vt 0.375000 0.750000
vt 0.375000 0.875000
vt 0.416667 0.000000
vt 0.416667 0.125000
vt 0.416667 0.250000
vt 0.416667 0.375000
vt 0.416667 0.500000
vt 0.416667 0.625000
vt 0.416667 0.750000
vt 0.416667 0.875000
vt 0.458333 0.000000
vt 0.458333 0.125000
vt 0.458333 0.250000
vt 0.458333 0.375000
vt 0.458333 0.500000
vt 0.458333 0.625000
vt 0.458333 0.750000
vt 0.458333 0.875000
vt 0.500000 0.000000
vt 0.500000 0.125000
vt 0.500000 0.250000
vt 0.500000 0.375000
vt 0.500000 0.500000
vt 0.500000 0.625000
vt 0.500000 0.750000
vt 0.500000 0.875000
vt 0.541667 0.000000
vt 0.541667 0.125000
vt 0.541667 0.250000
vt 0.541667 0.375000
vt 0.541667 0.500000
vt 0.541667 0.625000
vt 0.541667 0.750000
vt 0.541667 0.875000
vt 0.583333 0.000000
vt 0.583333 0.125000
vt 0.583333 0.250000
vt 0.583333 0.375000
vt 0.583333 0.500000
vt 0.583333 0.625000
vt 0.583333 0.750000
vt 0.583333 0.875000
vt 0.625000 0.000000
vt 0.625000 0.125000
vt 0.625000 0.250000
vt 0.625000 0.375000
vt 0.625000 0.500000
vt 0.625000 0.625000
vt 0.625000 0.750000
vt 0.625000 0.875000
vt 0.666667 0.000000
vt 0.666667 0.125000
vt 0.666667 0.250000
vt 0.666667 0.375000
vt 0.666667 0.500000
vt 0.666667 0.625000
vt 0.666667 0.750000
vt 0.666667 0.875000
vt 0.708333 0.000000
vt 0.708333 0.125000
vt 0.708333 0.250000
vt 0.708333 0.375000
vt 0.708333 0.500000
vt 0.708333 0.625000
vt 0.708333 0.750000
vt 0.708333 0.875000
vt 0.750000 0.000000
vt 0.750000 0.125000
vt 0.750000 0.250000
vt 0.750000 0.375000
vt 0.750000 0.500000
vt 0.750000 0.625000
vt 0.750000 0.750000
vt 0.750000 0.875000
vt 0.791667 0.000000
vt 0.791667 0.125000
vt 0.791667 0.250000
vt 0.791667 0.375000
vt 0.791667 0.500000
vt 0.791667 0.625000
vt 0.791667 0.750000
vt 0.791667 0.875000
vt 0.833333 0.000000
vt 0.833333 0.125000
vt 0.833333 0.250000
vt 0.833333 0.375000
vt 0.833333 0.500000
vt 0.833333 0.625000
vt 0.833333 0.750000
vt 0.833333 0.875000
vt 0.875000 0.000000
vt 0.875000 0.125000
vt 0.875000 0.250000
vt 0.875000 0.375000
vt 0.875000 0.500000
vt 0.875000 0.625000
vt 0.875000 0.750000
vt 0.875000 0.875000
vt 0.916667 0.000000
vt 0.916667 0.125000
vt 0.916667 0.250000
vt 0.916667 0.375000
vt 0.916667 0.500000
vt 0.916667 0.625000
vt 0.916667 0.750000
vt 0.916667 0.875000
vt 0.958333 0.000000
vt 0.958333 0.125000
vt 0.958333 0.250000
vt 0.958333 0.375000
vt 0.958333 0.500000
vt 0.958333 0.625000
vt 0.958333 0.750000
vt 0.958333 0.875000
vn 1.000000 0.000000 0.000000
vn 0.707107 0.000000 0.707107
vn 0.000000 0.000000 1.000000
vn -0.707107 -0.000000 0.707107
vn -1.000000 -0.000000 0.000000
vn -0.707107 -0.000000 -0.707107
vn -0.000000 -0.000000 -1.000000
vn 0.707107 0.000000 -0.707107
vn 0.965926 0.258819 0.000000
vn 0.683013 0.183013 0.707107
vn 0.000000 0.000000 1.000000
vn -0.683013 -0.183013 0.707107
vn -0.965926 -0.258819 0.000000
vn -0.683013 -0.183013 -0.707107
vn -0.000000 -0.000000 -1.000000
vn 0.683013 0.183013 -0.707107
vn 0.866025 0.500000 0.000000
vn 0.612372 0.353553 0.707107
vn 0.000000 0.000000 1.000000
vn -0.612372 -0.353553 0.707107
vn -0.866025 -0.500000 0.000000
vn -0.612372 -0.353553 -0.707107
vn -0.000000 -0.000000 -1.000000
vn 0.612372 0.353553 -0.707107
vn 0.707107 0.707107 0.000000
vn 0.500000 0.500000 0.707107
vn 0.000000 0.000000 1.000000
vn -0.500000 -0.500000 0.707107
vn -0.707107 -0.707107 0.000000
vn -0.500000 -0.500000 -0.707107
vn -0.000000 -0.000000 -1.000000
vn 0.500000 0.500000 -0.707107
vn 0.500000 0.866025 0.000000
vn 0.353553 0.612372 0.707107
vn 0.000000 0.000000 1.000000
vn -0.353553 -0.612372 0.707107
vn -0.500000 -0.866025 0.000000
vn -0.353553 -0.612372 -0.707107
vn -0.000000 -0.000000 -1.000000
vn 0.353553 0.612372 -0.707107
vn 0.258819 0.965926 0.000000
vn 0.183013 0.683013 0.707107
vn 0.000000 0.000000 1.000000
vn -0.183013 -0.683013 0.707107
vn -0.258819 -0.965926 0.000000
vn -0.183013 -0.683013 -0.707107
vn -0.000000 -0.000000 -1.000000
vn 0.183013 0.683013 -0.707107
vn 0.000000 1.000000 0.000000
vn 0.000000 0.707107 0.707107
vn 0.000000 0.000000 1.000000
vn -0.000000 -0.707107 0.707107
vn -0.000000 -1.000000 0.000000
vn -0.000000 -0.707107 -0.707107
vn -0.000000 -0.000000 -1.000000
vn 0.000000 0.707107 -0.707107
vn -0.258819 0.965926 0.000000
vn -0.183013 0.683013 0.707107
vn -0.000000 0.000000 1.000000
vn 0.183013 -0.683013 0.707107
vn 0.258819 -0.965926 0.000000
vn 0.183013 -0.683013 -0.707107
vn 0.000000 -0.000000 -1.000000
vn -0.183013 0.683013 -0.707107
vn -0.500000 0.866025 0.000000
vn -0.353553 0.612372 0.707107
vn -0.000000 0.000000 1.000000
vn 0.353553 -0.612372 0.707107
vn 0.500000 -0.866025 0.000000
vn 0.353553 -0.612372 -0.707107
vn 0.000000 -0.000000 -1.000000
vn -0.353553 0.612372 -0.707107
vn -0.707107 0.707107 0.000000
vn -0.500000 0.500000 0.707107
vn -0.000000 0.000000 1.000000
vn 0.500000 -0.500000 0.707107
vn 0.707107 -0.707107 0.000000
vn 0.500000 -0.500000 -0.707107
vn 0.000000 -0.000000 -1.000000
vn -0.500000 0.500000 -0.707107
vn -0.866025 0.500000 0.000000
vn -0.612372 0.353553 0.707107
vn -0.000000 0.000000 1.000000
vn 0.612372 -0.353553 0.707107
vn 0.866025 -0.500000 0.000000
vn 0.612372 -0.353553 -0.707107
vn 0.000000 -0.000000 -1.000000
vn -0.612372 0.353553 -0.707107
vn -0.965926 0.258819 0.000000
vn -0.683013 0.183013 0.707107
vn -0.000000 0.000000 1.000000
vn 0.683013 -0.183013 0.707107
vn 0.965926 -0.258819 0.000000
vn 0.683013 -0.183013 -0.707107
vn 0.000000 -0.000000 -1.000000
vn -0.683013 0.183013 -0.707107
vn -1.000000 0.000000 0.000000
vn -0.707107 0.000000 0.707107
vn -0.000000 0.000000 1.000000
vn 0.707107 -0.000000 0.707107
vn 1.000000 -0.000000 0.000000
vn 0.707107 -0.000000 -0.707107
vn 0.000000 -0.000000 -1.000000
vn -0.707107 0.000000 -0.707107
vn -0.965926 -0.258819 0.000000
vn -0.683013 -0.183013 0.707107
vn -0.000000 -0.000000 1.000000
vn 0.683013 0.183013 0.707107
vn 0.965926 0.258819 0.000000
vn 0.683013 0.183013 -0.707107
vn 0.000000 0.000000 -1.000000
vn -0.683013 -0.183013 -0.707107
vn -0.866025 -0.500000 0.000000
vn -0.612372 -0.353553 0.707107
vn -0.000000 -0.000000 1.000000
vn 0.612372 0.353553 0.707107
vn 0.866025 0.500000 0.000000
vn 0.612372 0.353553 -0.707107
vn 0.000000 0.000000 -1.000000
vn -0.612372 -0.353553 -0.707107
vn -0.707107 -0.707107 0.000000
vn -0.500000 -0.500000 0.707107
vn -0.000000 -0.000000 1.000000
vn 0.500000 0.500000 0.707107
vn 0.707107 0.707107 0.000000
vn 0.500000 0.500000 -0.707107
vn 0.000000 0.000000 -1.000000
vn -0.500000 -0.500000 -0.707107
vn -0.500000 -0.866025 0.000000
vn -0.353553 -0.612372 0.707107
vn -0.000000 -0.000000 1.000000
vn 0.353553 0.612372 0.707107
vn 0.500000 0.866025 0.000000
vn 0.353553 0.612372 -0.707107
vn 0.000000 0.000000 -1.000000
vn -0.353553 -0.612372 -0.707107
vn -0.258819 -0.965926 0.000000
vn -0.183013 -0.683013 0.707107
vn -0.000000 -0.000000 1.000000
vn 0.183013 0.683013 0.707107
vn 0.258819 0.965926 0.000000
vn 0.183013 0.683013 -0.707107
vn 0.000000 0.000000 -1.000000
vn -0.183013 -0.683013 -0.707107
vn -0.000000 -1.000000 0.000000
vn -0.000000 -0.707107 0.707107
vn -0.000000 -0.000000 1.000000
vn 0.000000 0.707107 0.707107
vn 0.000000 1.000000 0.000000
vn 0.000000 0.707107 -0.707107
vn 0.000000 0.000000 -1.000000
vn -0.000000 -0.707107 -0.707107
vn 0.258819 -0.965926 0.000000
vn 0.183013 -0.683013 0.707107
vn 0.000000 -0.000000 1.000000
vn -0.183013 0.683013 0.707107
vn -0.258819 0.965926 0.000000
vn -0.183013 0.683013 -0.707107
vn -0.000000 0.000000 -1.000000
vn 0.183013 -0.683013 -0.707107
vn 0.500000 -0.866025 0.000000
vn 0.353553 -0.612372 0.707107
vn 0.000000 -0.000000 1.000000
vn -0.353553 0.612372 0.707107
vn -0.500000 0.866025 0.000000
vn -0.353553 0.612372 -0.707107
vn -0.000000 0.000000 -1.000000
vn 0.353553 -0.612372 -0.707107
vn 0.707107 -0.707107 0.000000
vn 0.500000 -0.500000 0.707107
vn 0.000000 -0.000000 1.000000
vn -0.500000 0.500000 0.707107
vn -0.707107 0.707107 0.000000
vn -0.500000 0.500000 -0.707107
vn -0.000000 0.000000 -1.000000
vn 0.500000 -0.500000 -0.707107
vn 0.866025 -0.500000 0.000000
vn 0.612372 -0.353553 0.707107
vn 0.000000 -0.000000 1.000000
vn -0.612372 0.353553 0.707107
vn -0.866025 0.500000 0.000000
vn -0.612372 0.353553 -0.707107
vn -0.000000 0.000000 -1.000000
vn 0.612372 -0.353553 -0.707107
vn 0.965926 -0.258819 0.000000
vn 0.683013 -0.183013 0.707107
vn 0.000000 -0.000000 1.000000
vn -0.683013 0.183013 0.707107
vn -0.965926 0.258819 0.000000
vn -0.683013 0.183013 -0.707107
vn -0.000000 0.000000 -1.000000
vn 0.683013 -0.183013 -0.707107
usemtl boss_laser_torus_material
f 1/1/1 9/9/9 10/10/10
f 1/1/1 10/10/10 2/2/2
f 2/2/2 10/10/10 11/11/11
f 2/2/2 11/11/11 3/3/3
f 3/3/3 11/11/11 12/12/12
f 3/3/3 12/12/12 4/4/4
f 4/4/4 12/12/12 13/13/13
f 4/4/4 13/13/13 5/5/5
f 5/5/5 13/13/13 14/14/14
f 5/5/5 14/14/14 6/6/6
f 6/6/6 14/14/14 15/15/15
f 6/6/6 15/15/15 7/7/7
f 7/7/7 15/15/15 16/16/16
f 7/7/7 16/16/16 8/8/8
f 8/8/8 16/16/16 9/9/9
f 8/8/8 9/9/9 1/1/1
f 9/9/9 17/17/17 18/18/18
f 9/9/9 18/18/18 10/10/10
f 10/10/10 18/18/18 19/19/19
f 10/10/10 19/19/19 11/11/11
f 11/11/11 19/19/19 20/20/20
f 11/11/11 20/20/20 12/12/12
f 12/12/12 20/20/20 21/21/21
f 12/12/12 21/21/21 13/13/13
f 13/13/13 21/21/21 22/22/22
f 13/13/13 22/22/22 14/14/14
f 14/14/14 22/22/22 23/23/23
f 14/14/14 23/23/23 15/15/15
f 15/15/15 23/23/23 24/24/24
f 15/15/15 24/24/24 16/16/16
f 16/16/16 24/24/24 17/17/17
f 16/16/16 17/17/17 9/9/9
f 17/17/17 25/25/25 26/26/26
f 17/17/17 26/26/26 18/18/18
f 18/18/18 26/26/26 27/27/27
f 18/18/18 27/27/27 19/19/19
f 19/19/19 27/27/27 28/28/28
f 19/19/19 28/28/28 20/20/20
f 20/20/20 28/28/28 29/29/29
f 20/20/20 29/29/29 21/21/21
f 21/21/21 29/29/29 30/30/30
f 21/21/21 30/30/30 22/22/22
f 22/22/22 30/30/30 31/31/31
f 22/22/22 31/31/31 23/23/23
f 23/23/23 31/31/31 32/32/32
f 23/23/23 32/32/32 24/24/24
f 24/24/24 32/32/32 25/25/25
f 24/24/24 25/25/25 17/17/17
f 25/25/25 33/33/33 34/34/34
f 25/25/25 34/34/34 26/26/26
f 26/26/26 34/34/34 35/35/35
f 26/26/26 35/35/35 27/27/27
f 27/27/27 35/35/35 36/36/36
f 27/27/27 36/36/36 28/28/28
f 28/28/28 36/36/36 37/37/37
f 28/28/28 37/37/37 29/29/29
f 29/29/29 37/37/37 38/38/38
f 29/29/29 38/38/38 30/30/30
f 30/30/30 38/38/38 39/39/39
f 30/30/30 39/39/39 31/31/31
f 31/31/31 39/39/39 40/40/40
f 31/31/31 40/40/40 32/32/32
f 32/32/32 40/40/40 33/33/33
f 32/32/32 33/33/33 25/25/25
f 33/33/33 41/41/41 42/42/42
f 33/33/33 42/42/42 34/34/34
f 34/34/34 42/42/42 43/43/43
f 34/34/34 43/43/43 35/35/35
f 35/35/35 43/43/43 44/44/44
f 35/35/35 44/44/44 36/36/36
f 36/36/36 44/44/44 45/45/45
f 36/36/36 45/45/45 37/37/37
f 37/37/37 45/45/45 46/46/46
f 37/37/37 46/46/46 38/38/38
f 38/38/38 46/46/46 47/47/47
f 38/38/38 47/47/47 39/39/39
f 39/39/39 47/47/47 48/48/48
f 39/39/39 48/48/48 40/40/40
f 40/40/40 48/48/48 41/41/41
f 40/40/40 41/41/41 33/33/33
f 41/41/41 49/49/49 50/50/50
f 41/41/41 50/50/50 42/42/42
f 42/42/42 50/50/50 51/51/51
f 42/42/42 51/51/51 43/43/43
f 43/43/43 51/51/51 52/52/52
f 43/43/43 52/52/52 44/44/44
f 44/44/44 52/52/52 53/53/53
f 44/44/44 53/53/53 45/45/45
f 45/45/45 53/53/53 54/54/54
f 45/45/45 54/54/54 46/46/46
f 46/46/46 54/54/54 55/55/55
f 46/46/46 55/55/55 47/47/47
f 47/47/47 55/55/55 56/56/56
f 47/47/47 56/56/56 48/48/48
f 48/48/48 56/56/56 49/49/49
f 48/48/48 49/49/49 41/41/41
f 49/49/49 57/57/57 58/58/58
f 49/49/49 58/58/58 50/50/50
f 50/50/50 58/58/58 59/59/59
f 50/50/50 59/59/59 51/51/51
f 51/51/51 59/59/59 60/60/60
f 51/51/51 60/60/60 52/52/52
f 52/52/52 60/60/60 61/61/61
f 52/52/52 61/61/61 53/53/53
f 53/53/53 61/61/61 62/62/62
f 53/53/53 62/62/62 54/54/54
f 54/54/54 62/62/62 63/63/63
f 54/54/54 63/63/63 55/55/55
f 55/55/55 63/63/63 64/64/64
f 55/55/55 64/64/64 56/56/56
f 56/56/56 64/64/64 57/57/57
f 56/56/56 57/57/57 49/49/49
f 57/57/57 65/65/65 66/66/66
f 57/57/57 66/66/66 58/58/58
f 58/58/58 66/66/66 67/67/67
f 58/58/58 67/67/67 59/59/59
f 59/59/59 67/67/67 68/68/68
f 59/59/59 68/68/68 60/60/60
f 60/60/60 68/68/68 69/69/69
f 60/60/60 69/69/69 61/61/61
f 61/61/61 69/69/69 70/70/70
f 61/61/61 70/70/70 62/62/62
f 62/62/62 70/70/70 71/71/71
f 62/62/62 71/71/71 63/63/63
f 63/63/63 71/71/71 72/72/72
f 63/63/63 72/72/72 64/64/64
f 64/64/64 72/72/72 65/65/65
f 64/64/64 65/65/65 57/57/57
f 65/65/65 73/73/73 74/74/74
f 65/65/65 74/74/74 66/66/66
f 66/66/66 74/74/74 75/75/75
f 66/66/66 75/75/75 67/67/67
f 67/67/67 75/75/75 76/76/76
f 67/67/67 76/76/76 68/68/68
f 68/68/68 76/76/76 77/77/77
f 68/68/68 77/77/77 69/69/69
f 69/69/69 77/77/77 78/78/78
f 69/69/69 78/78/78 70/70/70
f 70/70/70 78/78/78 79/79/79
f 70/70/70 79/79/79 71/71/71
f 71/71/71 79/79/79 80/80/80
f 71/71/71 80/80/80 72/72/72
f 72/72/72 80/80/80 73/73/73
f 72/72/72 73/73/73 65/65/65
f 73/73/73 81/81/81 82/82/82
f 73/73/73 82/82/82 74/74/74
f 74/74/74 82/82/82 83/83/83
f 74/74/74 83/83/83 75/75/75
f 75/75/75 83/83/83 84/84/84
f 75/75/75 84/84/84 76/76/76
f 76/76/76 84/84/84 85/85/85
f 76/76/76 85/85/85 77/77/77
f 77/77/77 85/85/85 86/86/86
f 77/77/77 86/86/86 78/78/78
f 78/78/78 86/86/86 87/87/87
f 78/78/78 87/87/87 79/79/79
f 79/79/79 87/87/87 88/88/88
f 79/79/79 88/88/88 80/80/80
f 80/80/80 88/88/88 81/81/81
f 80/80/80 81/81/81 73/73/73
f 81/81/81 89/89/89 90/90/90
f 81/81/81 90/90/90 82/82/82
f 82/82/82 90/90/90 91/91/91
f 82/82/82 91/91/91 83/83/83
f 83/83/83 91/91/91 92/92/92
f 83/83/83 92/92/92 84/84/84
f 84/84/84 92/92/92 93/93/93
f 84/84/84 93/93/93 85/85/85
f 85/85/85 93/93/93 94/94/94
f 85/85/85 94/94/94 86/86/86
f 86/86/86 94/94/94 95/95/95
f 86/86/86 95/95/95 87/87/87
f 87/87/87 95/95/95 96/96/96
f 87/87/87 96/96/96 88/88/88
f 88/88/88 96/96/96 89/89/89
f 88/88/88 89/89/89 81/81/81
f 89/89/89 97/97/97 98/98/98
f 89/89/89 98/98/98 90/90/90
f 90/90/90 98/98/98 99/99/99
f 90/90/90 99/99/99 91/91/91
f 91/91/91 99/99/99 100/100/100
f 91/91/91 100/100/100 92/92/92
f 92/92/92 100/100/100 101/101/101
f 92/92/92 101/101/101 93/93/93
f 93/93/93 101/101/101 102/102/102
f 93/93/93 102/102/102 94/94/94
f 94/94/94 102/102/102 103/103/103
f 94/94/94 103/103/103 95/95/95
f 95/95/95 103/103/103 104/104/104
f 95/95/95 104/104/104 96/96/96
f 96/96/96 104/104/104 97/97/97
f 96/96/96 97/97/97 89/89/89
f 97/97/97 105/105/105 106/106/106
f 97/97/97 106/106/106 98/98/98
f 98/98/98 106/106/106 107/107/107
f 98/98/98 107/107/107 99/99/99
f 99/99/99 107/107/107 108/108/108
f 99/99/99 108/108/108 100/100/100
f 100/100/100 108/108/108 109/109/109
f 100/100/100 109/109/109 101/101/101
f 101/101/101 109/109/109 110/110/110
f 101/101/101 110/110/110 102/102/102
f 102/102/102 110/110/110 111/111/111
f 102/102/102 111/111/111 103/103/103
f 103/103/103 111/111/111 112/112/112
f 103/103/103 112/112/112 104/104/104
f 104/104/104 112/112/112 105/105/105
f 104/104/104 105/105/105 97/97/97
f 105/105/105 113/113/113 114/114/114
f 105/105/105 114/114/114 106/106/106
f 106/106/106 114/114/114 115/115/115
f 106/106/106 115/115/115 107/107/107
f 107/107/107 115/115/115 116/116/116
f 107/107/107 116/116/116 108/108/108
f 108/108/108 116/116/116 117/117/117
f 108/108/108 117/117/117 109/109/109
f 109/109/109 117/117/117 118/118/118
f 109/109/109 118/118/118 110/110/110
f 110/110/110 118/118/118 119/119/119
f 110/110/110 119/119/119 111/111/111
f 111/111/111 119/119/119 120/120/120
f 111/111/111 120/120/120 112/112/112
f 112/112/112 120/120/120 113/113/113
f 112/112/112 113/113/113 105/105/105
f 113/113/113 121/121/121 122/122/122
f 113/113/113 122/122/122 114/114/114
f 114/114/114 122/122/122 123/123/123
f 114/114/114 123/123/123 115/115/115
f 115/115/115 123/123/123 124/124/124
f 115/115/115 124/124/124 116/116/116
f 116/116/116 124/124/124 125/125/125
f 116/116/116 125/125/125 117/117/117
f 117/117/117 125/125/125 126/126/126
f 117/117/117 126/126/126 118/118/118
f 118/118/118 126/126/126 127/127/127
f 118/118/118 127/127/127 119/119/119
f 119/119/119 127/127/127 128/128/128
f 119/119/119 128/128/128 120/120/120
f 120/120/120 128/128/128 121/121/121
f 120/120/120 121/121/121 113/113/113
f 121/121/121 129/129/129 130/130/130
f 121/121/121 130/130/130 122/122/122
f 122/122/122 130/130/130 131/131/131
f 122/122/122 131/131/131 123/123/123
f 123/123/123 131/131/131 132/132/132
f 123/123/123 132/132/132 124/124/124
f 124/124/124 132/132/132 133/133/133
f 124/124/124 133/133/133 125/125/125
f 125/125/125 133/133/133 134/134/134
f 125/125/125 134/134/134 126/126/126
f 126/126/126 134/134/134 135/135/135
f 126/126/126 135/135/135 127/127/127
f 127/127/127 135/135/135 136/136/136
f 127/127/127 136/136/136 128/128/128
f 128/128/128 136/136/136 129/129/129
f 128/128/128 129/129/129 121/121/121
f 129/129/129 137/137/137 138/138/138
f 129/129/129 138/138/138 130/130/130
f 130/130/130 138/138/138 139/139/139
f 130/130/130 139/139/139 131/131/131
f 131/131/131 139/139/139 140/140/140
f 131/131/131 140/140/140 132/132/132
f 132/132/132 140/140/140 141/141/141
f 132/132/132 141/141/141 133/133/133
f 133/133/133 141/141/141 142/142/142
f 133/133/133 142/142/142 134/134/134
f 134/134/134 142/142/142 143/143/143
f 134/134/134 143/143/143 135/135/135
f 135/135/135 143/143/143 144/144/144
f 135/135/135 144/144/144 136/136/136
f 136/136/136 144/144/144 137/137/137
f 136/136/136 137/137/137 129/129/129
f 137/137/137 145/145/145 146/146/146
f 137/137/137 146/146/146 138/138/138
f 138/138/138 146/146/146 147/147/147
f 138/138/138 147/147/147 139/139/139
f 139/139/139 147/147/147 148/148/148
f 139/139/139 148/148/148 140/140/140
f 140/140/140 148/148/148 149/149/149
f 140/140/140 149/149/149 141/141/141
f 141/141/141 149/149/149 150/150/150
f 141/141/141 150/150/150 142/142/142
f 142/142/142 150/150/150 151/151/151
f 142/142/142 151/151/151 143/143/143
f 143/143/143 151/151/151 152/152/152
f 143/143/143 152/152/152 144/144/144
f 144/144/144 152/152/152 145/145/145
f 144/144/144 145/145/145 137/137/137
f 145/145/145 153/153/153 154/154/154
f 145/145/145 154/154/154 146/146/146
f 146/146/146 154/154/154 155/155/155
f 146/146/146 155/155/155 147/147/147
f 147/147/147 155/155/155 156/156/156
f 147/147/147 156/156/156 148/148/148
f 148/148/148 156/156/156 157/157/157
f 148/148/148 157/157/157 149/149/149
f 149/149/149 157/157/157 158/158/158
f 149/149/149 158/158/158 150/150/150
f 150/150/150 158/158/158 159/159/159
f 150/150/150 159/159/159 151/151/151
f 151/151/151 159/159/159 160/160/160
f 151/151/151 160/160/160 152/152/152
f 152/152/152 160/160/160 153/153/153
f 152/152/152 153/153/153 145/145/145
f 153/153/153 161/161/161 162/162/162
f 153/153/153 162/162/162 154/154/154
f 154/154/154 162/162/162 163/163/163
f 154/154/154 163/163/163 155/155/155
f 155/155/155 163/163/163 164/164/164
f 155/155/155 164/164/164 156/156/156
f 156/156/156 164/164/164 165/165/165
f 156/156/156 165/165/165 157/157/157
f 157/157/157 165/165/165 166/166/166
f 157/157/157 166/166/166 158/158/158
f 158/158/158 166/166/166 167/167/167
f 158/158/158 167/167/167 159/159/159
f 159/159/159 167/167/167 168/168/168
f 159/159/159 168/168/168 160/160/160
f 160/160/160 168/168/168 161/161/161
f 160/160/160 161/161/161 153/153/153
f 161/161/161 169/169/169 170/170/170
f 161/161/161 170/170/170 162/162/162
f 162/162/162 170/170/170 171/171/171
f 162/162/162 171/171/171 163/163/163
f 163/163/163 171/171/171 172/172/172
f 163/163/163 172/172/172 164/164/164
f 164/164/164 172/172/172 173/173/173
f 164/164/164 173/173/173 165/165/165
f 165/165/165 173/173/173 174/174/174
f 165/165/165 174/174/174 166/166/166
f 166/166/166 174/174/174 175/175/175
f 166/166/166 175/175/175 167/167/167
f 167/167/167 175/175/175 176/176/176
f 167/167/167 176/176/176 168/168/168
f 168/168/168 176/176/176 169/169/169
f 168/168/168 169/169/169 161/161/161
f 169/169/169 177/177/177 178/178/178
f 169/169/169 178/178/178 170/170/170
f 170/170/170 178/178/178 179/179/179
f 170/170/170 179/179/179 171/171/171
f 171/171/171 179/179/179 180/180/180
f 171/171/171 180/180/180 172/172/172
f 172/172/172 180/180/180 181/181/181
f 172/172/172 181/181/181 173/173/173
f 173/173/173 181/181/181 182/182/182
f 173/173/173 182/182/182 174/174/174
f 174/174/174 182/182/182 183/183/183
f 174/174/174 183/183/183 175/175/175
f 175/175/175 183/183/183 184/184/184
f 175/175/175 184/184/184 176/176/176
f 176/176/176 184/184/184 177/177/177
f 176/176/176 177/177/177 169/169/169
f 177/177/177 185/185/185 186/186/186
f 177/177/177 186/186/186 178/178/178
f 178/178/178 186/186/186 187/187/187
f 178/178/178 187/187/187 179/179/179
f 179/179/179 187/187/187 188/188/188
f 179/179/179 188/188/188 180/180/180
f 180/180/180 188/188/188 189/189/189
f 180/180/180 189/189/189 181/181/181
f 181/181/181 189/189/189 190/190/190
f 181/181/181 190/190/190 182/182/182
f 182/182/182 190/190/190 191/191/191
f 182/182/182 191/191/191 183/183/183
f 183/183/183 191/191/191 192/192/192
f 183/183/183 192/192/192 184/184/184
f 184/184/184 192/192/192 185/185/185
f 184/184/184 185/185/185 177/177/177
f 185/185/185 1/1/1 2/2/2
f 185/185/185 2/2/2 186/186/186
f 186/186/186 2/2/2 3/3/3
f 186/186/186 3/3/3 187/187/187
f 187/187/187 3/3/3 4/4/4
f 187/187/187 4/4/4 188/188/188
f 188/188/188 4/4/4 5/5/5
f 188/188/188 5/5/5 189/189/189
f 189/189/189 5/5/5 6/6/6
f 189/189/189 6/6/6 190/190/190
f 190/190/190 6/6/6 7/7/7
f 190/190/190 7/7/7 191/191/191
f 191/191/191 7/7/7 8/8/8
f 191/191/191 8/8/8 192/192/192
f 192/192/192 8/8/8 1/1/1
f 192/192/192 1/1/1 185/185/185
