# DirectXGame low-poly boomerang
mtllib boomerang.mtl
o boomerang
v -1.200000 0.080000 0.120000
v -0.220000 0.080000 0.120000
v 0.160000 0.080000 0.520000
v 1.220000 0.080000 0.120000
v 0.440000 0.080000 -0.120000
v -0.060000 0.080000 -0.260000
v -1.200000 -0.080000 0.120000
v -0.220000 -0.080000 0.120000
v 0.160000 -0.080000 0.520000
v 1.220000 -0.080000 0.120000
v 0.440000 -0.080000 -0.120000
v -0.060000 -0.080000 -0.260000
vt 0.000000 0.500000
vt 0.330000 0.620000
vt 0.500000 1.000000
vt 1.000000 0.500000
vt 0.660000 0.350000
vt 0.420000 0.000000
vn 0.000000 1.000000 0.000000
vn 0.000000 -1.000000 0.000000
vn 0.000000 0.000000 1.000000
vn 1.000000 0.000000 0.000000
vn 0.000000 0.000000 -1.000000
vn -1.000000 0.000000 0.000000
s 0
usemtl boomerang_core
f 1/1/1 2/2/1 6/6/1
f 2/2/1 5/5/1 6/6/1
f 2/2/1 3/3/1 5/5/1
f 3/3/1 4/4/1 5/5/1
f 7/1/2 12/6/2 8/2/2
f 8/2/2 12/6/2 11/5/2
f 8/2/2 11/5/2 9/3/2
f 9/3/2 11/5/2 10/4/2
f 1/1/6 7/1/6 8/2/6
f 1/1/6 8/2/6 2/2/6
f 2/2/3 8/2/3 9/3/3
f 2/2/3 9/3/3 3/3/3
f 3/3/3 9/3/3 10/4/3
f 3/3/3 10/4/3 4/4/3
f 4/4/4 10/4/4 11/5/4
f 4/4/4 11/5/4 5/5/4
f 5/5/5 11/5/5 12/6/5
f 5/5/5 12/6/5 6/6/5
f 6/6/5 12/6/5 7/1/5
f 6/6/5 7/1/5 1/1/5
