# DirectXGame low-poly fireball
mtllib fireball.mtl
o fireball
v 0.000000 1.180000 0.000000
v 0.000000 -1.000000 0.000000
v 0.000000 0.000000 1.120000
v 1.020000 0.060000 0.220000
v 0.180000 -0.040000 -1.180000
v -1.080000 0.020000 -0.180000
v 0.440000 0.520000 0.820000
v 0.760000 -0.380000 -0.680000
v -0.520000 0.420000 -0.780000
v -0.760000 -0.340000 0.600000
vt 0.500000 0.000000
vt 0.850000 0.260000
vt 0.740000 0.760000
vt 0.260000 0.760000
vt 0.150000 0.260000
vt 0.500000 1.000000
vn 0.000000 1.000000 0.000000
vn 0.000000 -1.000000 0.000000
vn 0.000000 0.000000 1.000000
vn 1.000000 0.000000 0.000000
vn 0.000000 0.000000 -1.000000
vn -1.000000 0.000000 0.000000
s 0
usemtl fireball_core
f 1/1/1 7/2/1 4/3/1
f 1/1/1 3/2/1 7/3/1
f 1/1/1 4/2/1 8/3/1
f 1/1/1 8/2/1 5/3/1
f 1/1/1 5/2/1 9/3/1
f 1/1/1 9/2/1 6/3/1
f 1/1/1 6/2/1 10/3/1
f 1/1/1 10/2/1 3/3/1
f 2/6/2 4/3/2 7/4/2
f 2/6/2 7/3/2 3/4/2
f 2/6/2 8/3/2 4/4/2
f 2/6/2 5/3/2 8/4/2
f 2/6/2 9/3/2 5/4/2
f 2/6/2 6/3/2 9/4/2
f 2/6/2 10/3/2 6/4/2
f 2/6/2 3/3/2 10/4/2
f 3/1/3 4/2/3 7/3/3
f 4/1/4 5/2/4 8/3/4
f 5/1/5 6/2/5 9/3/5
f 6/1/6 3/2/6 10/3/6
